<svg width="247" height="75" viewBox="0 0 247 75" fill="none" xmlns="http://www.w3.org/2000/svg">
<rect width="247" height="75" fill="white"/>
<mask id="path-2-outside-1_147_90" maskUnits="userSpaceOnUse" x="67" y="26" width="161" height="32" fill="black">
<rect fill="white" x="67" y="26" width="161" height="32"/>
<path d="M89.725 45.44C89.725 46.2667 89.6717 47.0133 89.565 47.68H72.725C72.8583 49.44 73.5117 50.8533 74.685 51.92C75.8583 52.9867 77.2983 53.52 79.005 53.52C81.4583 53.52 83.1917 52.4933 84.205 50.44H89.125C88.4583 52.4667 87.245 54.1333 85.485 55.44C83.7517 56.72 81.5917 57.36 79.005 57.36C76.8983 57.36 75.005 56.8933 73.325 55.96C71.6717 55 70.365 53.6667 69.405 51.96C68.4717 50.2267 68.005 48.2267 68.005 45.96C68.005 43.6933 68.4583 41.7067 69.365 40C70.2983 38.2667 71.5917 36.9333 73.245 36C74.925 35.0667 76.845 34.6 79.005 34.6C81.085 34.6 82.9383 35.0533 84.565 35.96C86.1917 36.8667 87.4583 38.1467 88.365 39.8C89.2717 41.4267 89.725 43.3067 89.725 45.44ZM84.965 44C84.9383 42.32 84.3383 40.9733 83.165 39.96C81.9917 38.9467 80.5383 38.44 78.805 38.44C77.2317 38.44 75.885 38.9467 74.765 39.96C73.645 40.9467 72.9783 42.2933 72.765 44H84.965ZM95.5725 38.24C96.3458 37.1733 97.3992 36.3067 98.7325 35.64C100.092 34.9467 101.599 34.6 103.252 34.6C105.199 34.6 106.959 35.0667 108.532 36C110.106 36.9333 111.346 38.2667 112.252 40C113.159 41.7067 113.612 43.6667 113.612 45.88C113.612 48.0933 113.159 50.08 112.252 51.84C111.346 53.5733 110.092 54.9333 108.492 55.92C106.919 56.88 105.172 57.36 103.252 57.36C101.546 57.36 100.026 57.0267 98.6925 56.36C97.3858 55.6933 96.3458 54.84 95.5725 53.8V57H91.0125V27.4H95.5725V38.24ZM108.972 45.88C108.972 44.36 108.652 43.0533 108.012 41.96C107.399 40.84 106.572 40 105.532 39.44C104.519 38.8533 103.426 38.56 102.252 38.56C101.106 38.56 100.012 38.8533 98.9725 39.44C97.9592 40.0267 97.1325 40.88 96.4925 42C95.8792 43.12 95.5725 44.44 95.5725 45.96C95.5725 47.48 95.8792 48.8133 96.4925 49.96C97.1325 51.08 97.9592 51.9333 98.9725 52.52C100.012 53.1067 101.106 53.4 102.252 53.4C103.426 53.4 104.519 53.1067 105.532 52.52C106.572 51.9067 107.399 51.0267 108.012 49.88C108.652 48.7333 108.972 47.4 108.972 45.88ZM143.463 38.16C144.13 37.04 145.01 36.1733 146.103 35.56C147.223 34.92 148.543 34.6 150.063 34.6V39.32H148.903C147.116 39.32 145.756 39.7733 144.823 40.68C143.916 41.5867 143.463 43.16 143.463 45.4V57H138.903V34.96H143.463V38.16ZM151.535 45.88C151.535 43.6667 151.988 41.7067 152.895 40C153.828 38.2933 155.081 36.9733 156.655 36.04C158.255 35.08 160.015 34.6 161.935 34.6C163.668 34.6 165.175 34.9467 166.455 35.64C167.761 36.3067 168.801 37.1467 169.575 38.16V34.96H174.175V57H169.575V53.72C168.801 54.76 167.748 55.6267 166.415 56.32C165.081 57.0133 163.561 57.36 161.855 57.36C159.961 57.36 158.228 56.88 156.655 55.92C155.081 54.9333 153.828 53.5733 152.895 51.84C151.988 50.08 151.535 48.0933 151.535 45.88ZM169.575 45.96C169.575 44.44 169.255 43.12 168.615 42C168.001 40.88 167.188 40.0267 166.175 39.44C165.161 38.8533 164.068 38.56 162.895 38.56C161.721 38.56 160.628 38.8533 159.615 39.44C158.601 40 157.775 40.84 157.135 41.96C156.521 43.0533 156.215 44.36 156.215 45.88C156.215 47.4 156.521 48.7333 157.135 49.88C157.775 51.0267 158.601 51.9067 159.615 52.52C160.655 53.1067 161.748 53.4 162.895 53.4C164.068 53.4 165.161 53.1067 166.175 52.52C167.188 51.9333 168.001 51.08 168.615 49.96C169.255 48.8133 169.575 47.48 169.575 45.96ZM178.644 45.88C178.644 43.6667 179.097 41.7067 180.004 40C180.937 38.2933 182.191 36.9733 183.764 36.04C185.364 35.08 187.137 34.6 189.084 34.6C190.524 34.6 191.937 34.92 193.324 35.56C194.737 36.1733 195.857 37 196.684 38.04V27.4H201.284V57H196.684V53.68C195.937 54.7467 194.897 55.6267 193.564 56.32C192.257 57.0133 190.751 57.36 189.044 57.36C187.124 57.36 185.364 56.88 183.764 55.92C182.191 54.9333 180.937 53.5733 180.004 51.84C179.097 50.08 178.644 48.0933 178.644 45.88ZM196.684 45.96C196.684 44.44 196.364 43.12 195.724 42C195.111 40.88 194.297 40.0267 193.284 39.44C192.271 38.8533 191.177 38.56 190.004 38.56C188.831 38.56 187.737 38.8533 186.724 39.44C185.711 40 184.884 40.84 184.244 41.96C183.631 43.0533 183.324 44.36 183.324 45.88C183.324 47.4 183.631 48.7333 184.244 49.88C184.884 51.0267 185.711 51.9067 186.724 52.52C187.764 53.1067 188.857 53.4 190.004 53.4C191.177 53.4 192.271 53.1067 193.284 52.52C194.297 51.9333 195.111 51.08 195.724 49.96C196.364 48.8133 196.684 47.48 196.684 45.96ZM227.473 45.44C227.473 46.2667 227.42 47.0133 227.313 47.68H210.473C210.607 49.44 211.26 50.8533 212.433 51.92C213.607 52.9867 215.047 53.52 216.753 53.52C219.207 53.52 220.94 52.4933 221.953 50.44H226.873C226.207 52.4667 224.993 54.1333 223.233 55.44C221.5 56.72 219.34 57.36 216.753 57.36C214.647 57.36 212.753 56.8933 211.073 55.96C209.42 55 208.113 53.6667 207.153 51.96C206.22 50.2267 205.753 48.2267 205.753 45.96C205.753 43.6933 206.207 41.7067 207.113 40C208.047 38.2667 209.34 36.9333 210.993 36C212.673 35.0667 214.593 34.6 216.753 34.6C218.833 34.6 220.687 35.0533 222.313 35.96C223.94 36.8667 225.207 38.1467 226.113 39.8C227.02 41.4267 227.473 43.3067 227.473 45.44ZM222.713 44C222.687 42.32 222.087 40.9733 220.913 39.96C219.74 38.9467 218.287 38.44 216.553 38.44C214.98 38.44 213.633 38.9467 212.513 39.96C211.393 40.9467 210.727 42.2933 210.513 44H222.713Z"/>
</mask>
<path d="M89.725 45.44C89.725 46.2667 89.6717 47.0133 89.565 47.68H72.725C72.8583 49.44 73.5117 50.8533 74.685 51.92C75.8583 52.9867 77.2983 53.52 79.005 53.52C81.4583 53.52 83.1917 52.4933 84.205 50.44H89.125C88.4583 52.4667 87.245 54.1333 85.485 55.44C83.7517 56.72 81.5917 57.36 79.005 57.36C76.8983 57.36 75.005 56.8933 73.325 55.96C71.6717 55 70.365 53.6667 69.405 51.96C68.4717 50.2267 68.005 48.2267 68.005 45.96C68.005 43.6933 68.4583 41.7067 69.365 40C70.2983 38.2667 71.5917 36.9333 73.245 36C74.925 35.0667 76.845 34.6 79.005 34.6C81.085 34.6 82.9383 35.0533 84.565 35.96C86.1917 36.8667 87.4583 38.1467 88.365 39.8C89.2717 41.4267 89.725 43.3067 89.725 45.44ZM84.965 44C84.9383 42.32 84.3383 40.9733 83.165 39.96C81.9917 38.9467 80.5383 38.44 78.805 38.44C77.2317 38.44 75.885 38.9467 74.765 39.96C73.645 40.9467 72.9783 42.2933 72.765 44H84.965ZM95.5725 38.24C96.3458 37.1733 97.3992 36.3067 98.7325 35.64C100.092 34.9467 101.599 34.6 103.252 34.6C105.199 34.6 106.959 35.0667 108.532 36C110.106 36.9333 111.346 38.2667 112.252 40C113.159 41.7067 113.612 43.6667 113.612 45.88C113.612 48.0933 113.159 50.08 112.252 51.84C111.346 53.5733 110.092 54.9333 108.492 55.92C106.919 56.88 105.172 57.36 103.252 57.36C101.546 57.36 100.026 57.0267 98.6925 56.36C97.3858 55.6933 96.3458 54.84 95.5725 53.8V57H91.0125V27.4H95.5725V38.24ZM108.972 45.88C108.972 44.36 108.652 43.0533 108.012 41.96C107.399 40.84 106.572 40 105.532 39.44C104.519 38.8533 103.426 38.56 102.252 38.56C101.106 38.56 100.012 38.8533 98.9725 39.44C97.9592 40.0267 97.1325 40.88 96.4925 42C95.8792 43.12 95.5725 44.44 95.5725 45.96C95.5725 47.48 95.8792 48.8133 96.4925 49.96C97.1325 51.08 97.9592 51.9333 98.9725 52.52C100.012 53.1067 101.106 53.4 102.252 53.4C103.426 53.4 104.519 53.1067 105.532 52.52C106.572 51.9067 107.399 51.0267 108.012 49.88C108.652 48.7333 108.972 47.4 108.972 45.88ZM143.463 38.16C144.13 37.04 145.01 36.1733 146.103 35.56C147.223 34.92 148.543 34.6 150.063 34.6V39.32H148.903C147.116 39.32 145.756 39.7733 144.823 40.68C143.916 41.5867 143.463 43.16 143.463 45.4V57H138.903V34.96H143.463V38.16ZM151.535 45.88C151.535 43.6667 151.988 41.7067 152.895 40C153.828 38.2933 155.081 36.9733 156.655 36.04C158.255 35.08 160.015 34.6 161.935 34.6C163.668 34.6 165.175 34.9467 166.455 35.64C167.761 36.3067 168.801 37.1467 169.575 38.16V34.96H174.175V57H169.575V53.72C168.801 54.76 167.748 55.6267 166.415 56.32C165.081 57.0133 163.561 57.36 161.855 57.36C159.961 57.36 158.228 56.88 156.655 55.92C155.081 54.9333 153.828 53.5733 152.895 51.84C151.988 50.08 151.535 48.0933 151.535 45.88ZM169.575 45.96C169.575 44.44 169.255 43.12 168.615 42C168.001 40.88 167.188 40.0267 166.175 39.44C165.161 38.8533 164.068 38.56 162.895 38.56C161.721 38.56 160.628 38.8533 159.615 39.44C158.601 40 157.775 40.84 157.135 41.96C156.521 43.0533 156.215 44.36 156.215 45.88C156.215 47.4 156.521 48.7333 157.135 49.88C157.775 51.0267 158.601 51.9067 159.615 52.52C160.655 53.1067 161.748 53.4 162.895 53.4C164.068 53.4 165.161 53.1067 166.175 52.52C167.188 51.9333 168.001 51.08 168.615 49.96C169.255 48.8133 169.575 47.48 169.575 45.96ZM178.644 45.88C178.644 43.6667 179.097 41.7067 180.004 40C180.937 38.2933 182.191 36.9733 183.764 36.04C185.364 35.08 187.137 34.6 189.084 34.6C190.524 34.6 191.937 34.92 193.324 35.56C194.737 36.1733 195.857 37 196.684 38.04V27.4H201.284V57H196.684V53.68C195.937 54.7467 194.897 55.6267 193.564 56.32C192.257 57.0133 190.751 57.36 189.044 57.36C187.124 57.36 185.364 56.88 183.764 55.92C182.191 54.9333 180.937 53.5733 180.004 51.84C179.097 50.08 178.644 48.0933 178.644 45.88ZM196.684 45.96C196.684 44.44 196.364 43.12 195.724 42C195.111 40.88 194.297 40.0267 193.284 39.44C192.271 38.8533 191.177 38.56 190.004 38.56C188.831 38.56 187.737 38.8533 186.724 39.44C185.711 40 184.884 40.84 184.244 41.96C183.631 43.0533 183.324 44.36 183.324 45.88C183.324 47.4 183.631 48.7333 184.244 49.88C184.884 51.0267 185.711 51.9067 186.724 52.52C187.764 53.1067 188.857 53.4 190.004 53.4C191.177 53.4 192.271 53.1067 193.284 52.52C194.297 51.9333 195.111 51.08 195.724 49.96C196.364 48.8133 196.684 47.48 196.684 45.96ZM227.473 45.44C227.473 46.2667 227.42 47.0133 227.313 47.68H210.473C210.607 49.44 211.26 50.8533 212.433 51.92C213.607 52.9867 215.047 53.52 216.753 53.52C219.207 53.52 220.94 52.4933 221.953 50.44H226.873C226.207 52.4667 224.993 54.1333 223.233 55.44C221.5 56.72 219.34 57.36 216.753 57.36C214.647 57.36 212.753 56.8933 211.073 55.96C209.42 55 208.113 53.6667 207.153 51.96C206.22 50.2267 205.753 48.2267 205.753 45.96C205.753 43.6933 206.207 41.7067 207.113 40C208.047 38.2667 209.34 36.9333 210.993 36C212.673 35.0667 214.593 34.6 216.753 34.6C218.833 34.6 220.687 35.0533 222.313 35.96C223.94 36.8667 225.207 38.1467 226.113 39.8C227.02 41.4267 227.473 43.3067 227.473 45.44ZM222.713 44C222.687 42.32 222.087 40.9733 220.913 39.96C219.74 38.9467 218.287 38.44 216.553 38.44C214.98 38.44 213.633 38.9467 212.513 39.96C211.393 40.9467 210.727 42.2933 210.513 44H222.713Z" fill="black"/>
<path d="M89.565 47.68V48.18H89.9914L90.0587 47.759L89.565 47.68ZM72.725 47.68V47.18H72.1857L72.2264 47.7178L72.725 47.68ZM74.685 51.92L74.3487 52.29L74.685 51.92ZM84.205 50.44V49.94H83.8942L83.7566 50.2187L84.205 50.44ZM89.125 50.44L89.6 50.5962L89.8158 49.94H89.125V50.44ZM85.485 55.44L85.782 55.8422L85.7831 55.8415L85.485 55.44ZM73.325 55.96L73.0739 56.3925L73.0822 56.3971L73.325 55.96ZM69.405 51.96L68.9647 52.1971L68.9692 52.2051L69.405 51.96ZM69.365 40L68.9248 39.7629L68.9234 39.7654L69.365 40ZM73.245 36L73.0022 35.5629L72.9992 35.5646L73.245 36ZM84.565 35.96L84.8084 35.5233L84.565 35.96ZM88.365 39.8L87.9266 40.0404L87.9283 40.0434L88.365 39.8ZM84.965 44V44.5H85.473L85.4649 43.9921L84.965 44ZM83.165 39.96L83.4918 39.5816V39.5816L83.165 39.96ZM74.765 39.96L75.0955 40.3352L75.1005 40.3308L74.765 39.96ZM72.765 44L72.2689 43.938L72.1986 44.5H72.765V44ZM89.225 45.44C89.225 46.2458 89.173 46.9655 89.0713 47.601L90.0587 47.759C90.1704 47.0612 90.225 46.2875 90.225 45.44H89.225ZM89.565 47.18H72.725V48.18H89.565V47.18ZM72.2264 47.7178C72.3682 49.5895 73.0698 51.1274 74.3487 52.29L75.0213 51.55C73.9535 50.5793 73.3484 49.2905 73.2236 47.6422L72.2264 47.7178ZM74.3487 52.29C75.6214 53.447 77.1843 54.02 79.005 54.02V53.02C77.4124 53.02 76.0953 52.5263 75.0213 51.55L74.3487 52.29ZM79.005 54.02C80.3018 54.02 81.4408 53.7482 82.3998 53.1802C83.3609 52.6109 84.1098 51.7627 84.6534 50.6613L83.7566 50.2187C83.2868 51.1707 82.6624 51.8624 81.8902 52.3198C81.1159 52.7784 80.1615 53.02 79.005 53.02V54.02ZM84.205 50.94H89.125V49.94H84.205V50.94ZM88.65 50.2838C88.0166 52.2096 86.8665 53.7916 85.187 55.0385L85.7831 55.8415C87.6235 54.4751 88.9001 52.7238 89.6 50.5962L88.65 50.2838ZM85.188 55.0378C83.5568 56.2423 81.5068 56.86 79.005 56.86V57.86C81.6766 57.86 83.9465 57.1977 85.782 55.8422L85.188 55.0378ZM79.005 56.86C76.9749 56.86 75.1665 56.4111 73.5678 55.5229L73.0822 56.3971C74.8435 57.3756 76.8217 57.86 79.005 57.86V56.86ZM73.5761 55.5276C72.0019 54.6135 70.7581 53.3457 69.8408 51.7149L68.9692 52.2051C69.9719 53.9876 71.3415 55.3865 73.0739 56.3924L73.5761 55.5276ZM69.8452 51.7229C68.9567 50.0728 68.505 48.1565 68.505 45.96H67.505C67.505 48.2968 67.9866 50.3805 68.9648 52.1971L69.8452 51.7229ZM68.505 45.96C68.505 43.761 68.9444 41.8575 69.8066 40.2346L68.9234 39.7654C67.9723 41.5559 67.505 43.6257 67.505 45.96H68.505ZM69.8052 40.237C70.6955 38.5836 71.9228 37.3205 73.4908 36.4354L72.9992 35.5646C71.2605 36.5461 69.9011 37.9497 68.9248 39.7629L69.8052 40.237ZM73.4878 36.4371C75.0847 35.5499 76.9193 35.1 79.005 35.1V34.1C76.7707 34.1 74.7653 34.5834 73.0022 35.5629L73.4878 36.4371ZM79.005 35.1C81.0099 35.1 82.7777 35.5362 84.3216 36.3967L84.8084 35.5233C83.0989 34.5704 81.16 34.1 79.005 34.1V35.1ZM84.3216 36.3967C85.865 37.257 87.0646 38.4685 87.9266 40.0404L88.8034 39.5596C87.8521 37.8249 86.5183 36.4763 84.8084 35.5233L84.3216 36.3967ZM87.9283 40.0434C88.7877 41.5854 89.225 43.3793 89.225 45.44H90.225C90.225 43.234 89.7556 41.2679 88.8017 39.5566L87.9283 40.0434ZM85.4649 43.9921C85.4362 42.183 84.7828 40.6965 83.4918 39.5816L82.8382 40.3384C83.8939 41.2501 84.4404 42.457 84.4651 44.0079L85.4649 43.9921ZM83.4918 39.5816C82.2168 38.4805 80.6432 37.94 78.805 37.94V38.94C80.4335 38.94 81.7665 39.4129 82.8382 40.3384L83.4918 39.5816ZM78.805 37.94C77.1134 37.94 75.6456 38.489 74.4295 39.5892L75.1005 40.3308C76.1244 39.4043 77.35 38.94 78.805 38.94V37.94ZM74.4345 39.5848C73.2091 40.6643 72.4949 42.1298 72.2689 43.938L73.2611 44.062C73.4618 42.4568 74.0809 41.229 75.0955 40.3352L74.4345 39.5848ZM72.765 44.5H84.965V43.5H72.765V44.5ZM95.5725 38.24H95.0725V39.7815L95.9773 38.5335L95.5725 38.24ZM98.7325 35.64L98.9561 36.0872L98.9596 36.0855L98.7325 35.64ZM108.533 36L108.788 35.57L108.533 36ZM112.252 40L111.809 40.2318L111.811 40.2346L112.252 40ZM112.252 51.84L112.696 52.0718L112.697 52.069L112.252 51.84ZM108.493 55.92L108.753 56.3468L108.755 56.3456L108.493 55.92ZM98.6925 56.36L98.4653 56.8054L98.4689 56.8072L98.6925 56.36ZM95.5725 53.8L95.9737 53.5016L95.0725 52.2896V53.8H95.5725ZM95.5725 57V57.5H96.0725V57H95.5725ZM91.0125 57H90.5125V57.5H91.0125V57ZM91.0125 27.4V26.9H90.5125V27.4H91.0125ZM95.5725 27.4H96.0725V26.9H95.5725V27.4ZM108.012 41.96L107.574 42.2002L107.577 42.2064L107.581 42.2126L108.012 41.96ZM105.533 39.44L105.282 39.8727L105.289 39.8766L105.295 39.8802L105.533 39.44ZM98.9725 39.44L98.7268 39.0045L98.722 39.0073L98.9725 39.44ZM96.4925 42L96.0583 41.7519L96.0539 41.7598L96.4925 42ZM96.4925 49.96L96.0514 50.1959L96.0584 50.2081L96.4925 49.96ZM98.9725 52.52L98.722 52.9527L98.7268 52.9555L98.9725 52.52ZM105.533 52.52L105.783 52.9527L105.786 52.9507L105.533 52.52ZM108.012 49.88L107.576 49.6363L107.572 49.6442L108.012 49.88ZM95.9773 38.5335C96.6976 37.54 97.6851 36.7227 98.9561 36.0872L98.5089 35.1928C97.1132 35.8906 95.9941 36.8067 95.1677 37.9465L95.9773 38.5335ZM98.9596 36.0855C100.244 35.4309 101.671 35.1 103.252 35.1V34.1C101.527 34.1 99.9415 34.4624 98.5054 35.1945L98.9596 36.0855ZM103.252 35.1C105.115 35.1 106.786 35.5455 108.277 36.43L108.788 35.57C107.132 34.5879 105.283 34.1 103.252 34.1V35.1ZM108.277 36.43C109.765 37.3127 110.943 38.5747 111.809 40.2317L112.696 39.7683C111.749 37.9586 110.446 36.554 108.788 35.57L108.277 36.43ZM111.811 40.2346C112.674 41.8591 113.112 43.7365 113.112 45.88H114.112C114.112 43.5969 113.644 41.5542 112.694 39.7654L111.811 40.2346ZM113.112 45.88C113.112 48.0232 112.674 49.9298 111.808 51.611L112.697 52.069C113.644 50.2302 114.112 48.1635 114.112 45.88H113.112ZM111.809 51.6083C110.943 53.2653 109.75 54.5569 108.23 55.4944L108.755 56.3456C110.435 55.3098 111.749 53.8814 112.696 52.0717L111.809 51.6083ZM108.232 55.4932C106.741 56.4033 105.085 56.86 103.252 56.86V57.86C105.26 57.86 107.098 57.3567 108.753 56.3468L108.232 55.4932ZM103.252 56.86C101.612 56.86 100.171 56.54 98.9161 55.9128L98.4689 56.8072C99.8811 57.5133 101.479 57.86 103.252 57.86V56.86ZM98.9197 55.9146C97.6725 55.2783 96.6954 54.4722 95.9737 53.5016L95.1713 54.0984C95.9962 55.2078 97.0992 56.1084 98.4653 56.8054L98.9197 55.9146ZM95.0725 53.8V57H96.0725V53.8H95.0725ZM95.5725 56.5H91.0125V57.5H95.5725V56.5ZM91.5125 57V27.4H90.5125V57H91.5125ZM91.0125 27.9H95.5725V26.9H91.0125V27.9ZM95.0725 27.4V38.24H96.0725V27.4H95.0725ZM109.472 45.88C109.472 44.289 109.137 42.8914 108.444 41.7074L107.581 42.2126C108.168 43.2153 108.472 44.431 108.472 45.88H109.472ZM108.451 41.7198C107.795 40.5222 106.902 39.6093 105.77 38.9998L105.295 39.8802C106.243 40.3907 107.003 41.1577 107.574 42.2002L108.451 41.7198ZM105.783 39.0073C104.693 38.3764 103.514 38.06 102.252 38.06V39.06C103.338 39.06 104.345 39.3302 105.282 39.8727L105.783 39.0073ZM102.252 38.06C101.016 38.06 99.8386 38.3774 98.7268 39.0045L99.2182 39.8755C100.186 39.3293 101.196 39.06 102.252 39.06V38.06ZM98.722 39.0073C97.6246 39.6426 96.7376 40.5633 96.0584 41.7519L96.9266 42.2481C97.5274 41.1967 98.2937 40.4107 99.223 39.8727L98.722 39.0073ZM96.0539 41.7598C95.3933 42.9663 95.0725 44.372 95.0725 45.96H96.0725C96.0725 44.508 96.3651 43.2737 96.931 42.2402L96.0539 41.7598ZM95.0725 45.96C95.0725 47.5483 95.3934 48.9652 96.0516 50.1958L96.9334 49.7242C96.3649 48.6614 96.0725 47.4117 96.0725 45.96H95.0725ZM96.0584 50.2081C96.7376 51.3967 97.6246 52.3174 98.722 52.9527L99.223 52.0873C98.2937 51.5493 97.5274 50.7633 96.9266 49.7119L96.0584 50.2081ZM98.7268 52.9555C99.8386 53.5826 101.016 53.9 102.252 53.9V52.9C101.196 52.9 100.186 52.6307 99.2182 52.0845L98.7268 52.9555ZM102.252 53.9C103.514 53.9 104.693 53.5836 105.783 52.9527L105.282 52.0873C104.345 52.6298 103.338 52.9 102.252 52.9V53.9ZM105.786 52.9507C106.912 52.2872 107.8 51.3369 108.453 50.1158L107.572 49.6442C106.998 50.7164 106.233 51.5262 105.279 52.0893L105.786 52.9507ZM108.449 50.1237C109.137 48.8915 109.472 47.4717 109.472 45.88H108.472C108.472 47.3283 108.168 48.5751 107.576 49.6363L108.449 50.1237ZM143.463 38.16H142.963V39.9775L143.893 38.4157L143.463 38.16ZM146.103 35.56L146.348 35.9961L146.351 35.9941L146.103 35.56ZM150.063 34.6H150.563V34.1H150.063V34.6ZM150.063 39.32V39.82H150.563V39.32H150.063ZM144.823 40.68L144.475 40.3213L144.47 40.3264L144.823 40.68ZM143.463 57V57.5H143.963V57H143.463ZM138.903 57H138.403V57.5H138.903V57ZM138.903 34.96V34.46H138.403V34.96H138.903ZM143.463 34.96H143.963V34.46H143.463V34.96ZM143.893 38.4157C144.516 37.3679 145.334 36.5648 146.348 35.9961L145.858 35.1239C144.686 35.7819 143.743 36.7121 143.033 37.9043L143.893 38.4157ZM146.351 35.9941C147.383 35.4044 148.615 35.1 150.063 35.1V34.1C148.472 34.1 147.063 34.4356 145.855 35.1259L146.351 35.9941ZM149.563 34.6V39.32H150.563V34.6H149.563ZM150.063 38.82H148.903V39.82H150.063V38.82ZM148.903 38.82C147.036 38.82 145.532 39.2946 144.475 40.3214L145.172 41.0386C145.981 40.252 147.197 39.82 148.903 39.82V38.82ZM144.47 40.3264C143.42 41.3763 142.963 43.1191 142.963 45.4H143.963C143.963 43.2009 144.413 41.7971 145.177 41.0336L144.47 40.3264ZM142.963 45.4V57H143.963V45.4H142.963ZM143.463 56.5H138.903V57.5H143.463V56.5ZM139.403 57V34.96H138.403V57H139.403ZM138.903 35.46H143.463V34.46H138.903V35.46ZM142.963 34.96V38.16H143.963V34.96H142.963ZM152.895 40L152.456 39.7601L152.453 39.7654L152.895 40ZM156.655 36.04L156.91 36.47L156.912 36.4687L156.655 36.04ZM166.455 35.64L166.216 36.0798L166.227 36.0854L166.455 35.64ZM169.575 38.16L169.177 38.4633L170.075 39.6393V38.16H169.575ZM169.575 34.96V34.46H169.075V34.96H169.575ZM174.175 34.96H174.675V34.46H174.175V34.96ZM174.175 57V57.5H174.675V57H174.175ZM169.575 57H169.075V57.5H169.575V57ZM169.575 53.72H170.075V52.2096L169.173 53.4216L169.575 53.72ZM166.415 56.32L166.184 55.8764L166.415 56.32ZM156.655 55.92L156.389 56.3436L156.394 56.3468L156.655 55.92ZM152.895 51.84L152.45 52.069L152.454 52.077L152.895 51.84ZM168.615 42L168.176 42.2402L168.181 42.2481L168.615 42ZM166.175 39.44L165.924 39.8727L166.175 39.44ZM159.615 39.44L159.857 39.8777L159.865 39.8727L159.615 39.44ZM157.135 41.96L156.701 41.7119L156.699 41.7154L157.135 41.96ZM157.135 49.88L156.694 50.1159L156.698 50.1237L157.135 49.88ZM159.615 52.52L159.356 52.9478L159.362 52.9517L159.369 52.9555L159.615 52.52ZM166.175 52.52L166.425 52.9527L166.175 52.52ZM168.615 49.96L168.178 49.7163L168.176 49.7198L168.615 49.96ZM152.035 45.88C152.035 43.7365 152.473 41.8591 153.336 40.2346L152.453 39.7654C151.503 41.5542 151.035 43.5969 151.035 45.88H152.035ZM153.333 40.2399C154.227 38.6068 155.419 37.3547 156.91 36.47L156.4 35.61C154.744 36.592 153.43 37.9799 152.456 39.7601L153.333 40.2399ZM156.912 36.4687C158.432 35.5568 160.103 35.1 161.935 35.1V34.1C159.927 34.1 158.077 34.6032 156.397 35.6113L156.912 36.4687ZM161.935 35.1C163.601 35.1 165.022 35.4328 166.217 36.0796L166.693 35.2004C165.327 34.4605 163.735 34.1 161.935 34.1V35.1ZM166.227 36.0854C167.478 36.7232 168.456 37.5179 169.177 38.4633L169.972 37.8567C169.147 36.7755 168.045 35.8902 166.682 35.1946L166.227 36.0854ZM170.075 38.16V34.96H169.075V38.16H170.075ZM169.575 35.46H174.175V34.46H169.575V35.46ZM173.675 34.96V57H174.675V34.96H173.675ZM174.175 56.5H169.575V57.5H174.175V56.5ZM170.075 57V53.72H169.075V57H170.075ZM169.173 53.4216C168.452 54.392 167.461 55.2124 166.184 55.8764L166.645 56.7636C168.035 56.0409 169.151 55.128 169.976 54.0184L169.173 53.4216ZM166.184 55.8764C164.931 56.5279 163.492 56.86 161.855 56.86V57.86C163.631 57.86 165.232 57.4988 166.645 56.7636L166.184 55.8764ZM161.855 56.86C160.051 56.86 158.408 56.404 156.915 55.4932L156.394 56.3468C158.048 57.356 159.872 57.86 161.855 57.86V56.86ZM156.92 55.4964C155.425 54.5585 154.23 53.2648 153.335 51.6029L152.454 52.077C153.426 53.8819 154.738 55.3081 156.389 56.3436L156.92 55.4964ZM153.339 51.611C152.473 49.9298 152.035 48.0232 152.035 45.88H151.035C151.035 48.1635 151.503 50.2302 152.45 52.069L153.339 51.611ZM170.075 45.96C170.075 44.3686 169.739 42.96 169.049 41.7519L168.181 42.2481C168.77 43.28 169.075 44.5114 169.075 45.96H170.075ZM169.053 41.7598C168.4 40.5672 167.525 39.6439 166.425 39.0073L165.924 39.8727C166.851 40.4095 167.603 41.1928 168.176 42.2402L169.053 41.7598ZM166.425 39.0073C165.336 38.3764 164.156 38.06 162.895 38.06V39.06C163.98 39.06 164.987 39.3302 165.924 39.8727L166.425 39.0073ZM162.895 38.06C161.634 38.06 160.454 38.3764 159.364 39.0073L159.865 39.8727C160.802 39.3302 161.809 39.06 162.895 39.06V38.06ZM159.373 39.0024C158.27 39.6117 157.381 40.5217 156.701 41.7119L157.569 42.2081C158.169 41.1583 158.932 40.3883 159.857 39.8776L159.373 39.0024ZM156.699 41.7154C156.035 42.8978 155.715 44.2924 155.715 45.88H156.715C156.715 44.4276 157.007 43.2089 157.571 42.2046L156.699 41.7154ZM155.715 45.88C155.715 47.4683 156.036 48.8852 156.694 50.1158L157.576 49.6442C157.007 48.5814 156.715 47.3317 156.715 45.88H155.715ZM156.698 50.1237C157.376 51.3377 158.26 52.2848 159.356 52.9478L159.874 52.0922C158.942 51.5286 158.174 50.7157 157.571 49.6363L156.698 50.1237ZM159.369 52.9555C160.481 53.5826 161.658 53.9 162.895 53.9V52.9C161.838 52.9 160.829 52.6307 159.86 52.0845L159.369 52.9555ZM162.895 53.9C164.156 53.9 165.336 53.5836 166.425 52.9527L165.924 52.0873C164.987 52.6298 163.98 52.9 162.895 52.9V53.9ZM166.425 52.9527C167.525 52.3161 168.4 51.3928 169.053 50.2002L168.176 49.7198C167.603 50.7672 166.851 51.5505 165.924 52.0873L166.425 52.9527ZM169.051 50.2037C169.739 48.9715 170.075 47.5517 170.075 45.96H169.075C169.075 47.4083 168.77 48.6551 168.178 49.7163L169.051 50.2037ZM180.004 40L179.565 39.7601L179.562 39.7654L180.004 40ZM183.764 36.04L184.019 36.47L184.021 36.4687L183.764 36.04ZM193.324 35.56L193.114 36.0141L193.125 36.0187L193.324 35.56ZM196.684 38.04L196.293 38.3511L197.184 39.4726V38.04H196.684ZM196.684 27.4V26.9H196.184V27.4H196.684ZM201.284 27.4H201.784V26.9H201.284V27.4ZM201.284 57V57.5H201.784V57H201.284ZM196.684 57H196.184V57.5H196.684V57ZM196.684 53.68H197.184V52.0938L196.274 53.3933L196.684 53.68ZM193.564 56.32L193.333 55.8764L193.33 55.8783L193.564 56.32ZM183.764 55.92L183.498 56.3437L183.507 56.3487L183.764 55.92ZM180.004 51.84L179.559 52.069L179.564 52.077L180.004 51.84ZM195.724 42L195.285 42.2402L195.29 42.2481L195.724 42ZM193.284 39.44L193.034 39.8727L193.284 39.44ZM186.724 39.44L186.966 39.8777L186.975 39.8727L186.724 39.44ZM184.244 41.96L183.81 41.7119L183.808 41.7154L184.244 41.96ZM184.244 49.88L183.803 50.1159L183.807 50.1237L184.244 49.88ZM186.724 52.52L186.465 52.9478L186.472 52.9517L186.478 52.9555L186.724 52.52ZM193.284 52.52L193.535 52.9527L193.284 52.52ZM195.724 49.96L195.287 49.7163L195.286 49.7198L195.724 49.96ZM179.144 45.88C179.144 43.7365 179.583 41.8591 180.446 40.2346L179.562 39.7654C178.612 41.5542 178.144 43.5969 178.144 45.88H179.144ZM180.443 40.2399C181.336 38.6068 182.528 37.3547 184.019 36.47L183.509 35.61C181.854 36.592 180.539 37.9799 179.565 39.7601L180.443 40.2399ZM184.021 36.4687C185.54 35.5574 187.224 35.1 189.084 35.1V34.1C187.051 34.1 185.188 34.6026 183.507 35.6113L184.021 36.4687ZM189.084 35.1C190.447 35.1 191.79 35.4024 193.115 36.014L193.534 35.106C192.085 34.4376 190.601 34.1 189.084 34.1V35.1ZM193.125 36.0187C194.475 36.6046 195.525 37.3849 196.293 38.3511L197.075 37.7289C196.19 36.6151 195 35.7421 193.523 35.1013L193.125 36.0187ZM197.184 38.04V27.4H196.184V38.04H197.184ZM196.684 27.9H201.284V26.9H196.684V27.9ZM200.784 27.4V57H201.784V27.4H200.784ZM201.284 56.5H196.684V57.5H201.284V56.5ZM197.184 57V53.68H196.184V57H197.184ZM196.274 53.3933C195.581 54.3845 194.606 55.2144 193.333 55.8764L193.795 56.7636C195.188 56.0389 196.294 55.1088 197.094 53.9667L196.274 53.3933ZM193.33 55.8783C192.106 56.5278 190.682 56.86 189.044 56.86V57.86C190.82 57.86 192.409 57.4988 193.798 56.7617L193.33 55.8783ZM189.044 56.86C187.212 56.86 185.541 56.4032 184.021 55.4913L183.507 56.3487C185.187 57.3568 187.036 57.86 189.044 57.86V56.86ZM184.03 55.4964C182.534 54.5585 181.339 53.2648 180.444 51.6029L179.564 52.077C180.536 53.8819 181.847 55.3081 183.498 56.3436L184.03 55.4964ZM180.449 51.611C179.582 49.9298 179.144 48.0232 179.144 45.88H178.144C178.144 48.1635 178.612 50.2302 179.56 52.069L180.449 51.611ZM197.184 45.96C197.184 44.3686 196.848 42.96 196.158 41.7519L195.29 42.2481C195.88 43.28 196.184 44.5114 196.184 45.96H197.184ZM196.163 41.7598C195.509 40.5672 194.634 39.6439 193.535 39.0073L193.034 39.8727C193.961 40.4095 194.712 41.1928 195.286 42.2402L196.163 41.7598ZM193.535 39.0073C192.445 38.3764 191.265 38.06 190.004 38.06V39.06C191.09 39.06 192.097 39.3302 193.034 39.8727L193.535 39.0073ZM190.004 38.06C188.743 38.06 187.563 38.3764 186.474 39.0073L186.975 39.8727C187.912 39.3302 188.919 39.06 190.004 39.06V38.06ZM186.482 39.0024C185.38 39.6117 184.49 40.5217 183.81 41.7119L184.678 42.2081C185.278 41.1583 186.042 40.3883 186.966 39.8776L186.482 39.0024ZM183.808 41.7154C183.145 42.8978 182.824 44.2924 182.824 45.88H183.824C183.824 44.4276 184.117 43.2089 184.68 42.2046L183.808 41.7154ZM182.824 45.88C182.824 47.4683 183.145 48.8852 183.803 50.1158L184.685 49.6442C184.117 48.5814 183.824 47.3317 183.824 45.88H182.824ZM183.807 50.1237C184.485 51.3377 185.37 52.2848 186.465 52.9478L186.983 52.0922C186.052 51.5286 185.283 50.7157 184.681 49.6363L183.807 50.1237ZM186.478 52.9555C187.59 53.5826 188.768 53.9 190.004 53.9V52.9C188.947 52.9 187.938 52.6307 186.97 52.0845L186.478 52.9555ZM190.004 53.9C191.265 53.9 192.445 53.5836 193.535 52.9527L193.034 52.0873C192.097 52.6298 191.09 52.9 190.004 52.9V53.9ZM193.535 52.9527C194.634 52.3161 195.509 51.3928 196.163 50.2002L195.286 49.7198C194.712 50.7672 193.961 51.5505 193.034 52.0873L193.535 52.9527ZM196.161 50.2037C196.848 48.9715 197.184 47.5517 197.184 45.96H196.184C196.184 47.4083 195.88 48.6551 195.287 49.7163L196.161 50.2037ZM227.313 47.68V48.18H227.74L227.807 47.759L227.313 47.68ZM210.473 47.68V47.18H209.934L209.975 47.7178L210.473 47.68ZM212.433 51.92L212.097 52.29L212.433 51.92ZM221.953 50.44V49.94H221.643L221.505 50.2187L221.953 50.44ZM226.873 50.44L227.348 50.5962L227.564 49.94H226.873V50.44ZM223.233 55.44L223.53 55.8422L223.531 55.8415L223.233 55.44ZM211.073 55.96L210.822 56.3925L210.831 56.3971L211.073 55.96ZM207.153 51.96L206.713 52.1971L206.718 52.2051L207.153 51.96ZM207.113 40L206.673 39.7629L206.672 39.7654L207.113 40ZM210.993 36L210.751 35.5629L210.748 35.5646L210.993 36ZM222.313 35.96L222.557 35.5233L222.313 35.96ZM226.113 39.8L225.675 40.0404L225.677 40.0434L226.113 39.8ZM222.713 44V44.5H223.221L223.213 43.9921L222.713 44ZM220.913 39.96L221.24 39.5816V39.5816L220.913 39.96ZM212.513 39.96L212.844 40.3352L212.849 40.3308L212.513 39.96ZM210.513 44L210.017 43.938L209.947 44.5H210.513V44ZM226.973 45.44C226.973 46.2458 226.921 46.9655 226.82 47.601L227.807 47.759C227.919 47.0612 227.973 46.2875 227.973 45.44H226.973ZM227.313 47.18H210.473V48.18H227.313V47.18ZM209.975 47.7178C210.117 49.5895 210.818 51.1274 212.097 52.29L212.77 51.55C211.702 50.5793 211.097 49.2905 210.972 47.6422L209.975 47.7178ZM212.097 52.29C213.37 53.447 214.933 54.02 216.753 54.02V53.02C215.161 53.02 213.844 52.5263 212.77 51.55L212.097 52.29ZM216.753 54.02C218.05 54.02 219.189 53.7482 220.148 53.1802C221.109 52.6109 221.858 51.7627 222.402 50.6613L221.505 50.2187C221.035 51.1707 220.411 51.8624 219.639 52.3198C218.864 52.7784 217.91 53.02 216.753 53.02V54.02ZM221.953 50.94H226.873V49.94H221.953V50.94ZM226.398 50.2838C225.765 52.2096 224.615 53.7916 222.935 55.0385L223.531 55.8415C225.372 54.4751 226.649 52.7238 227.348 50.5962L226.398 50.2838ZM222.936 55.0378C221.305 56.2423 219.255 56.86 216.753 56.86V57.86C219.425 57.86 221.695 57.1977 223.53 55.8422L222.936 55.0378ZM216.753 56.86C214.723 56.86 212.915 56.4111 211.316 55.5229L210.831 56.3971C212.592 57.3756 214.57 57.86 216.753 57.86V56.86ZM211.325 55.5276C209.75 54.6135 208.507 53.3457 207.589 51.7149L206.718 52.2051C207.72 53.9876 209.09 55.3865 210.822 56.3924L211.325 55.5276ZM207.594 51.7229C206.705 50.0728 206.253 48.1565 206.253 45.96H205.253C205.253 48.2968 205.735 50.3805 206.713 52.1971L207.594 51.7229ZM206.253 45.96C206.253 43.761 206.693 41.8575 207.555 40.2346L206.672 39.7654C205.721 41.5559 205.253 43.6257 205.253 45.96H206.253ZM207.554 40.237C208.444 38.5836 209.671 37.3205 211.239 36.4354L210.748 35.5646C209.009 36.5461 207.65 37.9497 206.673 39.7629L207.554 40.237ZM211.236 36.4371C212.833 35.5499 214.668 35.1 216.753 35.1V34.1C214.519 34.1 212.514 34.5834 210.751 35.5629L211.236 36.4371ZM216.753 35.1C218.758 35.1 220.526 35.5362 222.07 36.3967L222.557 35.5233C220.847 34.5704 218.908 34.1 216.753 34.1V35.1ZM222.07 36.3967C223.613 37.257 224.813 38.4685 225.675 40.0404L226.552 39.5596C225.601 37.8249 224.267 36.4763 222.557 35.5233L222.07 36.3967ZM225.677 40.0434C226.536 41.5854 226.973 43.3793 226.973 45.44H227.973C227.973 43.234 227.504 41.2679 226.55 39.5566L225.677 40.0434ZM223.213 43.9921C223.185 42.183 222.531 40.6965 221.24 39.5816L220.587 40.3384C221.642 41.2501 222.189 42.457 222.214 44.0079L223.213 43.9921ZM221.24 39.5816C219.965 38.4805 218.392 37.94 216.553 37.94V38.94C218.182 38.94 219.515 39.4129 220.587 40.3384L221.24 39.5816ZM216.553 37.94C214.862 37.94 213.394 38.489 212.178 39.5892L212.849 40.3308C213.873 39.4043 215.098 38.94 216.553 38.94V37.94ZM212.183 39.5848C210.958 40.6643 210.243 42.1298 210.017 43.938L211.01 44.062C211.21 42.4568 211.829 41.229 212.844 40.3352L212.183 39.5848ZM210.513 44.5H222.713V43.5H210.513V44.5Z" fill="#F2F2F2" mask="url(#path-2-outside-1_147_90)"/>
<mask id="path-4-outside-2_147_90" maskUnits="userSpaceOnUse" x="113" y="14" width="33" height="44" fill="black">
<rect fill="white" x="113" y="14" width="33" height="44"/>
<path d="M144.64 15.12V21.9H133.48V57H125.08V21.9H113.92V15.12H144.64Z"/>
</mask>
<path d="M144.64 15.12V21.9H133.48V57H125.08V21.9H113.92V15.12H144.64Z" fill="black"/>
<path d="M144.64 15.12H145.14V14.62H144.64V15.12ZM144.64 21.9V22.4H145.14V21.9H144.64ZM133.48 21.9V21.4H132.98V21.9H133.48ZM133.48 57V57.5H133.98V57H133.48ZM125.08 57H124.58V57.5H125.08V57ZM125.08 21.9H125.58V21.4H125.08V21.9ZM113.92 21.9H113.42V22.4H113.92V21.9ZM113.92 15.12V14.62H113.42V15.12H113.92ZM144.14 15.12V21.9H145.14V15.12H144.14ZM144.64 21.4H133.48V22.4H144.64V21.4ZM132.98 21.9V57H133.98V21.9H132.98ZM133.48 56.5H125.08V57.5H133.48V56.5ZM125.58 57V21.9H124.58V57H125.58ZM125.08 21.4H113.92V22.4H125.08V21.4ZM114.42 21.9V15.12H113.42V21.9H114.42ZM113.92 15.62H144.64V14.62H113.92V15.62Z" fill="#F2F2F2" mask="url(#path-4-outside-2_147_90)"/>
<mask id="path-6-outside-3_147_90" maskUnits="userSpaceOnUse" x="11" y="14" width="61" height="44" fill="black">
<rect fill="white" x="11" y="14" width="61" height="44"/>
<path d="M71.12 15.12L59.42 57H49.52L41.66 27.18L33.44 57L23.6 57.06L12.32 15.12H21.32L28.7 47.64L37.22 15.12H46.58L54.62 47.46L62.06 15.12H71.12Z"/>
</mask>
<path d="M71.12 15.12L59.42 57H49.52L41.66 27.18L33.44 57L23.6 57.06L12.32 15.12H21.32L28.7 47.64L37.22 15.12H46.58L54.62 47.46L62.06 15.12H71.12Z" fill="black"/>
<path d="M71.12 15.12L71.6016 15.2545L71.7788 14.62H71.12V15.12ZM59.42 57V57.5H59.7995L59.9016 57.1345L59.42 57ZM49.52 57L49.0365 57.1274L49.1347 57.5H49.52V57ZM41.66 27.18L42.1435 27.0526L41.6708 25.2593L41.178 27.0471L41.66 27.18ZM33.44 57L33.4431 57.5L33.8215 57.4977L33.922 57.1329L33.44 57ZM23.6 57.06L23.1172 57.1899L23.2173 57.5623L23.603 57.56L23.6 57.06ZM12.32 15.12V14.62H11.6678L11.8372 15.2499L12.32 15.12ZM21.32 15.12L21.8076 15.0093L21.7192 14.62H21.32V15.12ZM28.7 47.64L28.2124 47.7507L29.1837 47.7667L28.7 47.64ZM37.22 15.12V14.62H36.8341L36.7363 14.9933L37.22 15.12ZM46.58 15.12L47.0652 14.9994L46.9709 14.62H46.58V15.12ZM54.62 47.46L54.1348 47.5806L55.1073 47.5721L54.62 47.46ZM62.06 15.12V14.62H61.662L61.5727 15.0079L62.06 15.12ZM70.6384 14.9855L58.9384 56.8655L59.9016 57.1345L71.6016 15.2545L70.6384 14.9855ZM59.42 56.5H49.52V57.5H59.42V56.5ZM50.0035 56.8726L42.1435 27.0526L41.1765 27.3074L49.0365 57.1274L50.0035 56.8726ZM41.178 27.0471L32.958 56.8671L33.922 57.1329L42.142 27.3129L41.178 27.0471ZM33.437 56.5L23.597 56.56L23.603 57.56L33.4431 57.5L33.437 56.5ZM24.0828 56.9301L12.8028 14.9901L11.8372 15.2499L23.1172 57.1899L24.0828 56.9301ZM12.32 15.62H21.32V14.62H12.32V15.62ZM20.8324 15.2307L28.2124 47.7507L29.1876 47.5293L21.8076 15.0093L20.8324 15.2307ZM29.1837 47.7667L37.7037 15.2467L36.7363 14.9933L28.2163 47.5133L29.1837 47.7667ZM37.22 15.62H46.58V14.62H37.22V15.62ZM46.0948 15.2406L54.1348 47.5806L55.1052 47.3394L47.0652 14.9994L46.0948 15.2406ZM55.1073 47.5721L62.5473 15.2321L61.5727 15.0079L54.1327 47.3479L55.1073 47.5721ZM62.06 15.62H71.12V14.62H62.06V15.62Z" fill="#F2F2F2" mask="url(#path-6-outside-3_147_90)"/>
</svg>
