<svg width="31" height="32" viewBox="0 0 31 32" fill="none" xmlns="http://www.w3.org/2000/svg">
<path fill-rule="evenodd" clip-rule="evenodd" d="M23.7008 14.1779C24.0997 14.6329 24.0997 15.3679 23.7008 15.8237L21.7314 18.0722C21.465 18.3756 21.0278 18.3756 20.7614 18.0722C20.6981 18.0003 20.6479 17.9148 20.6136 17.8207C20.5793 17.7266 20.5617 17.6258 20.5617 17.5239C20.5617 17.422 20.5793 17.3212 20.6136 17.2271C20.6479 17.133 20.6981 17.0475 20.7614 16.9756C21.1101 16.5783 21.4971 16.2274 21.9152 15.9294L22.1795 15.7412L22.0381 15.581C21.5363 15.7123 21.023 15.7786 20.508 15.7786H15.0972C14.916 15.7786 14.7423 15.6966 14.6142 15.5508C14.4861 15.4049 14.4141 15.2071 14.4141 15.0008C14.4141 14.7945 14.4861 14.5967 14.6142 14.4508C14.7423 14.3049 14.916 14.223 15.0972 14.223H20.508C21.023 14.223 21.5363 14.2892 22.0381 14.4206L22.1795 14.2603L21.9159 14.0729C21.4975 13.7742 21.1102 13.4225 20.7614 13.0244C20.6981 12.9525 20.6479 12.867 20.6136 12.7729C20.5793 12.6788 20.5617 12.578 20.5617 12.4761C20.5617 12.3742 20.5793 12.2734 20.6136 12.1793C20.6479 12.0852 20.6981 11.9997 20.7614 11.9278C21.0278 11.6244 21.465 11.6244 21.7314 11.9278L23.7008 14.1779ZM18.5141 18.1111C18.3329 18.1111 18.1591 18.1931 18.031 18.3389C17.9029 18.4848 17.831 18.6826 17.831 18.8889V20.0556C17.831 20.1587 17.795 20.2576 17.7309 20.3305C17.6669 20.4035 17.58 20.4444 17.4894 20.4444H12.7077C12.6172 20.4444 12.5303 20.4035 12.4662 20.3305C12.4022 20.2576 12.3662 20.1587 12.3662 20.0556V9.94444C12.3662 9.8413 12.4022 9.74239 12.4662 9.66946C12.5303 9.59653 12.6172 9.55556 12.7077 9.55556H17.4894C17.58 9.55556 17.6669 9.59653 17.7309 9.66946C17.795 9.74239 17.831 9.8413 17.831 9.94444V11.115C17.831 11.3213 17.9029 11.5191 18.031 11.665C18.1591 11.8108 18.3329 11.8928 18.5141 11.8928C18.6952 11.8928 18.869 11.8108 18.9971 11.665C19.1252 11.5191 19.1972 11.3213 19.1972 11.115V9.94444C19.1972 9.42875 19.0172 8.93417 18.697 8.56951C18.3767 8.20486 17.9423 8 17.4894 8H12.7077C12.2548 8 11.8204 8.20486 11.5002 8.56951C11.1799 8.93417 11 9.42875 11 9.94444V20.0556C11 20.5713 11.1799 21.0658 11.5002 21.4305C11.8204 21.7951 12.2548 22 12.7077 22H17.4894C17.9423 22 18.3767 21.7951 18.697 21.4305C19.0172 21.0658 19.1972 20.5713 19.1972 20.0556V18.8889C19.1972 18.6826 19.1252 18.4848 18.9971 18.3389C18.869 18.1931 18.6952 18.1111 18.5141 18.1111Z" fill="black"/>
<path opacity="0.75" d="M30.25 15.7689C30.25 24.0758 23.6341 30.7878 15.5 30.7878C7.36591 30.7878 0.75 24.0758 0.75 15.7689C0.75 7.46198 7.36591 0.75 15.5 0.75C23.6341 0.75 30.25 7.46198 30.25 15.7689Z" stroke="black" stroke-width="1.5"/>
</svg>
